# ToLaserBlade
# Copyright 2016 Iunius118
# Created by Metasequoia

mtllib laser_blade.mtl

v -0.031200 0.375000 0.031200
v -0.031250 0.000000 0.031250
v 0.031300 0.375000 0.031200
v 0.031250 0.000000 0.031250
v 0.031300 0.375000 -0.031300
v 0.031250 0.000000 -0.031250
v -0.031200 0.375000 -0.031300
v -0.031250 0.000000 -0.031250
v -0.093750 0.375000 0.093750
v -0.093750 0.312500 0.093750
v 0.093750 0.375000 0.093750
v 0.093750 0.312500 0.093750
v 0.093750 0.375000 -0.093750
v 0.093750 0.312500 -0.093750
v -0.093750 0.375000 -0.093750
v -0.093750 0.312500 -0.093750
v -0.031200 1.375000 0.031200
v -0.031200 0.375000 0.031200
v 0.031300 1.375000 0.031200
v 0.031300 0.375000 0.031200
v 0.031300 1.375000 -0.031300
v 0.031300 0.375000 -0.031300
v -0.031200 1.375000 -0.031300
v -0.031200 0.375000 -0.031300
v -0.062450 1.406300 0.062450
v -0.062450 0.343700 0.062450
v 0.062550 1.406300 0.062450
v 0.062550 0.343700 0.062450
v 0.062550 1.406300 -0.062550
v 0.062550 0.343700 -0.062550
v -0.062450 1.406300 -0.062550
v -0.062450 0.343700 -0.062550
v -0.093700 1.437500 0.093700
v -0.093700 0.375000 0.093700
v 0.093800 1.437500 0.093700
v 0.093800 0.375000 0.093700
v 0.093800 1.437500 -0.093800
v 0.093800 0.375000 -0.093800
v -0.093700 1.437500 -0.093800
v -0.093700 0.375000 -0.093800
# 40 vertices

vt 0.00000 0.00000
vt 1.00000 0.00000
vt 1.00000 1.00000
vt 0.00000 1.00000
# 4 texture vertices

vn 0.00000 0.00013 1.00000
vn 1.00000 -0.00013 0.00000
vn 0.00000 -0.00013 -1.00000
vn 0.00000 0.00000 1.00000
vn 1.00000 0.00000 0.00000
vn 0.00000 0.00000 -1.00000
vn -1.00000 0.00013 0.00000
vn 0.00000 -1.00000 0.00000
vn -1.00000 0.00000 0.00000
vn 0.00000 1.00000 0.00000
# 10 normal vertices

g Hilt
usemtl mat_Hilt
f 2/4/1 4/3/1 3/2/1 1/1/1
f 4/4/2 6/3/2 5/2/2 3/1/2
f 6/4/3 8/3/3 7/2/3 5/1/3
f 8/4/7 2/3/7 1/2/7 7/1/7
f 8/4/8 6/3/8 4/2/8 2/1/8
f 10/4/4 12/3/4 11/2/4 9/1/4
f 12/4/5 14/3/5 13/2/5 11/1/5
f 14/4/6 16/3/6 15/2/6 13/1/6
f 16/4/9 10/3/9 9/2/9 15/1/9
f 9/4/10 11/3/10 13/2/10 15/1/10
f 16/4/8 14/3/8 12/2/8 10/1/8
g Blade
usemtl mat_Blade_core
f 18/4/4 20/3/4 19/2/4 17/1/4
f 20/4/5 22/3/5 21/2/5 19/1/5
f 22/4/6 24/3/6 23/2/6 21/1/6
f 24/4/9 18/3/9 17/2/9 23/1/9
f 17/4/10 19/3/10 21/2/10 23/1/10
f 24/4/8 22/3/8 20/2/8 18/1/8
usemtl mat_Blade_halo
f 26/4/4 28/3/4 27/2/4 25/1/4
f 28/4/5 30/3/5 29/2/5 27/1/5
f 30/4/6 32/3/6 31/2/6 29/1/6
f 32/4/9 26/3/9 25/2/9 31/1/9
f 25/4/10 27/3/10 29/2/10 31/1/10
f 32/4/8 30/3/8 28/2/8 26/1/8
f 34/4/4 36/3/4 35/2/4 33/1/4
f 36/4/5 38/3/5 37/2/5 35/1/5
f 38/4/6 40/3/6 39/2/6 37/1/6
f 40/4/9 34/3/9 33/2/9 39/1/9
f 33/4/10 35/3/10 37/2/10 39/1/10
f 40/4/8 38/3/8 36/2/8 34/1/8
# 29 elements

